<svg xmlns="http://www.w3.org/2000/svg" xmlns:xlink="http://www.w3.org/1999/xlink" version="1.1" x="0px" y="0px" viewBox="0 0 100 125" style="enable-background:new 0 0 100 100;" xml:space="preserve"><path d="M88.974,22.658l-14.192-4.731c-1.021,6.761-5.973,11.93-8.255,13.973c-0.97,0.87-2.224,1.354-3.527,1.354  c-1.295,0-2.546-0.478-3.519-1.346c-2.358-2.114-7.869-7.803-8.438-15.193c-0.008-0.11,0.009-0.214,0.003-0.324L35.25,19.55V35  c0,1.242-1.008,2.25-2.25,2.25s-2.25-1.008-2.25-2.25V19.437l-19.886-4.972C9.917,14.229,9,14.945,9,15.921v68.908  c0,0.688,0.468,1.288,1.136,1.455l20.614,5.154V86.75c0-1.242,1.008-2.25,2.25-2.25s2.25,1.008,2.25,2.25v4.8l25.5-5.1v-14.7  c0-1.242,1.008-2.25,2.25-2.25s2.25,1.008,2.25,2.25V86.5l22.925,5.094C89.111,91.802,90,91.09,90,90.13V24.081  C90,23.435,89.587,22.862,88.974,22.658z M30,80c-1.657,0-3-1.343-3-3c0-1.657,1.343-3,3-3s3,1.343,3,3C33,78.657,31.657,80,30,80z   M34.165,56H29.25v8.1c0,0.497-0.403,0.9-0.9,0.9h-2.7c-0.497,0-0.9-0.403-0.9-0.9V56h-4.915c-0.948,0-1.371-1.167-0.647-1.779  c2.662-2.251,5.036-4.962,6.456-6.684h-5.809c-0.951,0-1.361-1.175-0.636-1.789c3.023-2.559,5.752-5.789,7.032-7.382  c0.4-0.497,1.137-0.497,1.536,0c1.28,1.593,4.009,4.823,7.032,7.382c0.726,0.614,0.315,1.789-0.636,1.789h-5.809  c1.421,1.722,3.795,4.433,6.456,6.684C35.536,54.833,35.113,56,34.165,56z M42,80c-1.657,0-3-1.343-3-3c0-1.657,1.343-3,3-3  s3,1.343,3,3C45,78.657,43.657,80,42,80z M45,68c-1.657,0-3-1.343-3-3c0-1.657,1.343-3,3-3s3,1.343,3,3C48,66.657,46.657,68,45,68z   M45,56c-1.657,0-3-1.343-3-3c0-1.657,1.343-3,3-3s3,1.343,3,3C48,54.657,46.657,56,45,56z M54,50c-1.657,0-3-1.343-3-3  c0-1.657,1.343-3,3-3s3,1.343,3,3C57,48.657,55.657,50,54,50z M60,41c0-1.657,1.343-3,3-3s3,1.343,3,3c0,1.657-1.343,3-3,3  S60,42.657,60,41z M79.165,65H74.25v8.1c0,0.497-0.403,0.9-0.9,0.9h-2.7c-0.497,0-0.9-0.403-0.9-0.9V65h-4.915  c-0.948,0-1.371-1.167-0.647-1.779c2.662-2.251,5.036-4.962,6.456-6.684h-5.809c-0.951,0-1.361-1.175-0.636-1.789  c3.023-2.559,5.752-5.789,7.032-7.382c0.4-0.497,1.137-0.497,1.536,0c1.28,1.593,4.009,4.823,7.032,7.382  c0.726,0.614,0.315,1.789-0.636,1.789h-5.809c1.421,1.722,3.795,4.433,6.456,6.684C80.536,63.833,80.113,65,79.165,65z"/><path d="M61.366,8.172c-3.785,0.799-6.127,4.342-5.832,8.199c0.45,5.893,5.314,10.717,6.94,12.175  c0.306,0.274,0.745,0.276,1.051,0.001C65.229,27.021,70.5,21.787,70.5,15.5C70.5,10.824,66.222,7.148,61.366,8.172z M63,18.5  c-1.657,0-3-1.343-3-3c0-1.657,1.343-3,3-3s3,1.343,3,3C66,17.157,64.657,18.5,63,18.5z"/></svg>