<svg xmlns="http://www.w3.org/2000/svg" xmlns:xlink="http://www.w3.org/1999/xlink" version="1.1" x="0px" y="0px" viewBox="0 0 24 30" enable-background="new 0 0 24 24" xml:space="preserve"><path d="M12,2C6.4863281,2,2,6.4863281,2,12s4.4863281,10,10,10s10-4.4863281,10-10S17.5136719,2,12,2z M12,20  c-4.4111328,0-8-3.5888672-8-8s3.5888672-8,8-8s8,3.5888672,8,8S16.4111328,20,12,20z M16.5996094,14.2001953  c0.4423828,0.3310547,0.5322266,0.9580078,0.2001953,1.3994141C16.6035156,15.8623047,16.3037109,16,15.9990234,16  c-0.2089844,0-0.4189453-0.0654297-0.5986328-0.2001953l-4-3C11.1484375,12.6113281,11,12.3144531,11,12V6  c0-0.5527344,0.4472656-1,1-1s1,0.4472656,1,1v5.5L16.5996094,14.2001953z"/></svg>